<svg id="Layer_1" data-name="Layer 1" xmlns="http://www.w3.org/2000/svg" viewBox="0 0 58.5 42"><defs><style>.cls-1{fill:#fff;}</style></defs><path class="cls-1" d="M61.2,22.5a7.7,7.7,0,0,0-4.7-1.2l-2.5.2a9.7,9.7,0,0,0-4.2-6.3l-.8-.4-.6.7A11.9,11.9,0,0,0,46.9,19a8.5,8.5,0,0,0,1,6.5,11,11,0,0,1-4.3,1H5.1a1.8,1.8,0,0,0-1.8,1.9A26.1,26.1,0,0,0,5,38.3a15.2,15.2,0,0,0,5.8,7.6c2.9,1.8,7.6,2.8,12.9,2.8a41.7,41.7,0,0,0,7.1-.7,28.7,28.7,0,0,0,9.4-3.4,24.3,24.3,0,0,0,6.3-5.2,32.9,32.9,0,0,0,6.2-10.7h.6a9,9,0,0,0,6.5-2.5,7.2,7.2,0,0,0,1.8-2.5l.2-.8Z" transform="translate(-3.3 -6.7)"/><path class="cls-1" d="M8.7,25.4h5.1a.5.5,0,0,0,.5-.4h0V20.3a.5.5,0,0,0-.5-.4H8.7a.5.5,0,0,0-.5.4h0V25a.5.5,0,0,0,.5.4h0" transform="translate(-3.3 -6.7)"/><path class="cls-1" d="M15.8,25.4h5.1a.5.5,0,0,0,.5-.4h0V20.3a.5.5,0,0,0-.5-.4H15.8a.5.5,0,0,0-.5.4V25c.1.2.2.4.5.4" transform="translate(-3.3 -6.7)"/><path class="cls-1" d="M23,25.4h5.2c.2,0,.5-.2.5-.4h0V20.3a.5.5,0,0,0-.5-.4H23a.4.4,0,0,0-.4.4h0V25a.4.4,0,0,0,.4.4h0" transform="translate(-3.3 -6.7)"/><path class="cls-1" d="M30.2,25.4h5.1a.5.5,0,0,0,.5-.4V20.3a.5.5,0,0,0-.5-.4H30.2a.5.5,0,0,0-.5.4h0V25a.5.5,0,0,0,.5.4h0" transform="translate(-3.3 -6.7)"/><path class="cls-1" d="M15.8,18.8h5.1a.5.5,0,0,0,.5-.4V13.7a.5.5,0,0,0-.5-.4H15.8a.5.5,0,0,0-.5.4v4.7c.1.2.2.4.5.4" transform="translate(-3.3 -6.7)"/><path class="cls-1" d="M23,18.8h5.2c.2,0,.5-.2.5-.4V13.7a.5.5,0,0,0-.5-.4H23a.4.4,0,0,0-.4.4h0v4.7a.4.4,0,0,0,.4.4" transform="translate(-3.3 -6.7)"/><path class="cls-1" d="M30.2,18.8h5.1a.5.5,0,0,0,.5-.4V13.7a.5.5,0,0,0-.5-.4H30.2a.5.5,0,0,0-.5.4h0v4.7a.5.5,0,0,0,.5.4" transform="translate(-3.3 -6.7)"/><path class="cls-1" d="M30.2,12.2h5.1a.5.5,0,0,0,.5-.5V7.1a.5.5,0,0,0-.5-.4H30.2c-.3,0-.5.1-.5.4h0v4.6a.5.5,0,0,0,.5.5" transform="translate(-3.3 -6.7)"/><path class="cls-1" d="M37.4,25.4h5.1A.5.5,0,0,0,43,25V20.3a.5.5,0,0,0-.5-.4H37.4a.5.5,0,0,0-.5.4h0V25a.5.5,0,0,0,.5.4" transform="translate(-3.3 -6.7)"/></svg>