<svg id="Layer_1" data-name="Layer 1" xmlns="http://www.w3.org/2000/svg" viewBox="0 0 51.1 51.1"><defs><style>.cls-1{fill:#fff;}</style></defs><g id="g10"><g id="g12"><path id="path14" class="cls-1" d="M56.1,25.1,33.7,2.8a3.2,3.2,0,0,0-4.6,0L24.4,7.4l5.9,5.9a4.2,4.2,0,0,1,4.1,1,3.7,3.7,0,0,1,.9,4L41,24a3.8,3.8,0,0,1,4,.9,3.9,3.9,0,0,1,0,5.5,3.9,3.9,0,0,1-6.4-4.2l-5.3-5.3V34.8l1.1.7a4,4,0,1,1-5.6,0,5.7,5.7,0,0,1,1.3-.8v-14a3.8,3.8,0,0,1-1.3-.9,4.1,4.1,0,0,1-.8-4.3L22.2,9.7,6.9,25a3.3,3.3,0,0,0,0,4.7L29.2,52a3.2,3.2,0,0,0,4.6,0L56.1,29.8a3.3,3.3,0,0,0,0-4.7" transform="translate(-5.9 -1.8)"/></g></g></svg>