<svg id="Layer_1" data-name="Layer 1" xmlns="http://www.w3.org/2000/svg" viewBox="0 0 51 49.7"><defs><style>.cls-1{fill:#fff;fill-rule:evenodd;}</style></defs><path class="cls-1" d="M32.5,2.4a25.5,25.5,0,0,0-8,49.7c1.3.2,1.7-.5,1.7-1.2V46.2c-6.4,1.1-8.1-1.6-8.6-3s-1.5-3-2.6-3.6-2.1-1.7,0-1.7,3.4,1.8,3.9,2.6a5.5,5.5,0,0,0,7.4,2.1A5.2,5.2,0,0,1,28,39.2c-5.7-.7-11.6-2.9-11.6-12.6A9.7,9.7,0,0,1,19,19.7a8.6,8.6,0,0,1,.2-6.7s2.2-.7,7,2.6a23.2,23.2,0,0,1,12.8,0c4.9-3.3,7-2.6,7-2.6a8.6,8.6,0,0,1,.2,6.7,9.8,9.8,0,0,1,2.7,6.9c0,9.8-6,11.9-11.7,12.6,1,.8,1.8,2.3,1.8,4.7s-.1,6.2-.1,7,.5,1.5,1.8,1.2A25.5,25.5,0,0,0,32.5,2.4Z" transform="translate(-7.1 -2.4)"/></svg>