<svg id="Layer_1" data-name="Layer 1" xmlns="http://www.w3.org/2000/svg" viewBox="0 0 54.5 54.5"><defs><style>.cls-1{fill:none;stroke:#fff;stroke-miterlimit:10;}.cls-2{fill:#fff;}</style></defs><rect class="cls-1" x="0.5" y="0.5" width="53.5" height="53.49"/><path class="cls-2" d="M39.4,42.5c1.1,1.8,2.5,3.1,5,3.1s3.4-1.1,3.4-2.5-1.4-2.3-3.6-3.4l-1.3-.5c-3.6-1.5-6-3.5-6-7.6S39.7,25,44.2,25a7.5,7.5,0,0,1,7.2,4l-3.9,2.5a3.5,3.5,0,0,0-3.3-2.1,2.1,2.1,0,0,0-2.4,2.1c0,1.5,1,2.2,3.1,3.1l1.3.5c4.2,1.9,6.6,3.7,6.6,7.9s-3.5,7-8.3,7-7.7-2.2-9.1-5.1Zm-17.7.4c.8,1.4,1.5,2.6,3.2,2.6s2.7-.6,2.7-3.1V25.3h5V42.4c0,5.2-3,7.6-7.5,7.6a7.8,7.8,0,0,1-7.5-4.6Z" transform="translate(-3 -0.2)"/></svg>