<svg id="Layer_1" data-name="Layer 1" xmlns="http://www.w3.org/2000/svg" viewBox="0 0 49.6 51.1"><defs><style>.cls-1{fill:#ff291a;fill-rule:evenodd;}</style></defs><path class="cls-1" d="M49.6,11.6V22.8a.8.8,0,0,1-.4.7L40,28.8V39.3a.8.8,0,0,1-.4.7L20.4,51.1h-.2a.3.3,0,0,1-.4,0h-.2L.4,40a.8.8,0,0,1-.4-.7V6.2H.3c0-.1,0-.1.1-.1h0L10,.1h.8l9.6,5.6h.2c.1,0,.1,0,.1.1h.1v21l8-4.6V11.6h.4l9.6-6a.6.6,0,0,1,.8,0l9.6,5.5h.4ZM48,22.3V13.2l-3.3,1.9L40,17.8v9.1ZM38.4,38.8V29.7l-4.6,2.6-13,7.5V49ZM1.6,7.8v31L19.2,49V39.8L10,34.5H9.7c0-.1,0-.1-.1-.1h0v-.2h0V12.4L4.9,9.7Zm8.8-6-8,4.6,8,4.6,8-4.6Zm4.1,28.7,4.7-2.6V7.8L15.8,9.7l-4.6,2.7V32.5ZM39.2,7.2l-8,4.6,8,4.6,8-4.6Zm-.8,10.6-4.6-2.7-3.4-1.9v9.1L35.1,25l3.3,1.9ZM20,38.4l11.7-6.7,5.9-3.4-8-4.6L20.4,29,12,33.8Z" transform="translate(0 -0.1)"/></svg>