<svg id="Layer_1" data-name="Layer 1" xmlns="http://www.w3.org/2000/svg" viewBox="0 0 53.5 27.6"><defs><style>.cls-1,.cls-2{fill:#fff;}.cls-2{fill-rule:evenodd;}</style></defs><path class="cls-1" d="M4.9,37.9H6.7v-7L9.4,37A1.5,1.5,0,0,0,11,38a1.7,1.7,0,0,0,1.7-1l2.7-6.1v7h1.7v-7c0-.6-.2-1-.8-1.1s-2.2-.1-2.6.8l-2.7,6-2.6-6c-.4-.9-1.3-1.3-2.7-.8a1,1,0,0,0-.8,1.1Zm13.7-5.7h1.8v3.9c0,.2,0,.7,1,.7h3.8V32.2H27v6.3c0,1.5-1.9,1.8-2.8,1.9H18.7V39.2h5.5c1.2-.2,1-.7,1-.9v-.5H21.5c-1.8,0-2.9-.8-2.9-1.6s.1-3.9,0-4Z" transform="translate(-4.9 -12.7)"/><path class="cls-1" d="M28.4,37.9h5a3.3,3.3,0,0,0,1.7-.4,1.6,1.6,0,0,0,1.1-1.4V34.8c0-.5-.4-1-1.2-1.3a4.1,4.1,0,0,0-1.6-.3H31.3c-.7,0-1-.2-1.1-.6v-1h0c.1-.4.2-.5.9-.6h5.2V29.7h-5l-1.4.2c-1.1.3-1.5.8-1.5,1.7v1.1c0,.8.9,1.4,2.4,1.6h2.5a1.6,1.6,0,0,1,1,.4.4.4,0,0,1,.1.3v1a.5.5,0,0,1-.2.4,1,1,0,0,1-.8.3h-5v1.2Zm18.8-2.1q0,1.8,2.7,2.1H55V36.7H50.4c-1,0-1.4-.3-1.4-.9V29.7H47.2v6.1Zm-9.9.1V31.7c0-1.1.8-1.7,2.3-1.9h4.3c1.5.2,2.2.8,2.2,1.9v4.2a1.5,1.5,0,0,1-1,1.6l1.7,1.6H44.7l-1.4-1.3H39c-1.1-.3-1.7-.9-1.7-1.9Zm1.9-.1c0,.1.1.1.1.2s.5.7,1.2.7h1.6l-1.4-1.3h2L44,36.6c.2-.2.4-.4.4-.6V31.8h0c-.1-.5-.5-.8-1.2-.8H40.5c-.8,0-1.3.4-1.3.9v4Z" transform="translate(-4.9 -12.7)"/><path class="cls-1" d="M56.6,27.8a6.5,6.5,0,0,0-2.6.4c-.2,0-.6.1-.6.3s.1.3.2.4l.7.9.9.6,1.6.8.9.7.5.3h0l-.3-.5-.4-.4A8.6,8.6,0,0,0,56.1,30c-.4-.3-1.3-.7-1.5-1.2h-.1l1-.2,1.3-.2.7-.2h0c-.3-.2-.4-.6-.7-.8a18.4,18.4,0,0,0-2.2-1.7l-1.4-.6-.6-.3c-.2-.3-.3-.7-.5-1A25.6,25.6,0,0,1,51,21.2c-.3-.5-.4-1-.7-1.5a14.1,14.1,0,0,0-5.2-5.1,4.8,4.8,0,0,0-1.8-.5h-1l-.6-.4c-.8-.5-2.8-1.6-3.3-.2s.5,1.7.8,2.2a3.6,3.6,0,0,1,.7,1c.1.2.1.5.2.7a9.6,9.6,0,0,0,.7,1.8l.5.9.4.4a3.8,3.8,0,0,0-.3,1,6,6,0,0,0,.4,4.6c.2.3.7,1.1,1.4.8s.4-1,.6-1.7,0-.3.1-.4h0l.6,1.2a9.6,9.6,0,0,0,1.7,1.8,8.7,8.7,0,0,0,1,.8h0l-.3-.2-.7-.8a12.8,12.8,0,0,1-1.5-2.5,3.8,3.8,0,0,1-.6-1.3c-.1-.2-.1-.4-.3-.5l-.6.9a11.2,11.2,0,0,0-.4,2.1h0c-.5-.1-.6-.5-.8-.9a6.3,6.3,0,0,1-.1-3.6c.1-.3.5-1.2.3-1.5s-.3-.4-.4-.6a2.6,2.6,0,0,1-.5-.9c-.4-.7-.5-1.6-.9-2.3a3.4,3.4,0,0,0-.7-1.1,8.6,8.6,0,0,1-.7-1,.7.7,0,0,1-.1-.6h.2c.2-.2.7,0,.9.1l1.3.7c.2.1.4.4.7.4h.2l1.4.2a6.6,6.6,0,0,1,1.9.9,11.7,11.7,0,0,1,4.2,4.6,3,3,0,0,1,.4,1l.9,1.9a7.7,7.7,0,0,0,1,1.8c.2.3,1,.5,1.4.6l.9.4,1.4.9c.2.2.8.5.9.8Z" transform="translate(-4.9 -12.7)"/><path class="cls-2" d="M42.8,16h-.5c.1.3.3.4.4.6l.3.6h0c.2-.1.3-.3.3-.7s-.1-.1-.1-.2l-.4-.4Z" transform="translate(-4.9 -12.7)"/><path class="cls-2" d="M55.9,36.7A1.3,1.3,0,0,0,57.2,38a1.3,1.3,0,0,0,0-2.6A1.3,1.3,0,0,0,55.9,36.7Zm2.3,0a1,1,0,0,1-1,1,1,1,0,0,1-1.1-1,1.1,1.1,0,0,1,1.1-1.1A1.1,1.1,0,0,1,58.2,36.7Zm-.7.7h.3l-.4-.6c.2-.1.4-.2.4-.4s-.2-.5-.6-.5h-.6v1.5h.3v-.6h.2l.4.6Zm-.6-.8v-.5h.3l.3.2c0,.3-.2.3-.3.3Z" transform="translate(-4.9 -12.7)"/></svg>