<svg id="Layer_1" data-name="Layer 1" xmlns="http://www.w3.org/2000/svg" viewBox="0 0 58.7 58.7"><defs><style>.cls-1{fill:#fff;}.cls-2,.cls-3{fill:none;stroke:#fff;stroke-miterlimit:10;}.cls-2{stroke-width:0.5px;}.cls-3{stroke-width:2px;}</style></defs><polygon class="cls-1" points="58.2 29 58.2 29 58.2 29 58.2 29"/><path class="cls-1" d="M188.2,38V17.7a1.1,1.1,0,0,0-.6-.7h-2.4a1.8,1.8,0,0,0-.5.7c0,.1-.1,2.8-.1,7.6v7.3l1.8,2.7Z" transform="translate(-148.3 0.7)"/><path class="cls-1" d="M188.8,45.6c-2.6-3.8-7.7-11.5-11.4-17.1L170.5,18c-.3-.3-.5-.3-1.6-.3h-1.3c-.2.1-.4.2-.4.3l-.2.2V41.1l.3.4.3.2h2.2l.5-.5c.1-.2.1-.5.1-8.6V24.1c.1,0,2.7,3.8,5.8,8.5l5.8,8.5,4.6,6.2,4.7,6.3h0l1.9-1.1Z" transform="translate(-148.3 0.7)"/><path class="cls-1" d="M178.5-.4h0Z" transform="translate(-148.3 0.7)"/><polygon class="cls-1" points="0.7 29 0.7 29 0.7 29 0.7 29"/><path class="cls-2" d="M187.6,17a1.1,1.1,0,0,1,.6.7V38l-1.8-2.7-1.8-2.7V25.3c0-4.8.1-7.5.1-7.6a1.8,1.8,0,0,1,.5-.7h2.4Z" transform="translate(-148.3 0.7)"/><circle class="cls-3" cx="29.3" cy="29.3" r="28.3"/></svg>