<svg id="Layer_1" data-name="Layer 1" xmlns="http://www.w3.org/2000/svg" viewBox="0 0 58.3 30.7"><defs><style>.cls-1{fill:#fff;}</style></defs><path class="cls-1" d="M33.1,14.1c15.7,0,27.7,6.6,27.7,13.8s-12,13.8-27.7,13.8S5.5,35.1,5.5,27.9s12-13.8,27.6-13.8m0-1.5C17,12.6,4,19.4,4,27.9S17,43.3,33.1,43.3s29.2-6.9,29.2-15.4S49.3,12.6,33.1,12.6ZM23.9,26.7c-.8,3.7-3.3,3.3-6.4,3.3l1.2-6.4c3.5,0,5.8-.4,5.2,3.1Zm-11,9.8h3.3l.8-4.1c3.7,0,6.1.3,8.2-1.7s3-6.1,1.3-8a5.1,5.1,0,0,0-4.2-1.6H15.8ZM29.8,17h3.3l-.8,4.1c2.9,0,5.6-.2,6.8,1s.7,2.8-.7,10.3H35c1.4-7.2,1.7-7.8,1.2-8.4s-1.6-.4-4.4-.4l-1.7,8.8H26.8l3-15.4ZM50,26.7c-.7,3.7-3.3,3.3-6.4,3.3l1.3-6.4c3.5,0,5.8-.4,5.1,3.1ZM39,36.5h3.4l.7-4.1c4,0,6.2.3,8.3-1.7s3-6.1,1.3-8-2.3-1.6-4.3-1.6H42Z" transform="translate(-4 -12.6)"/></svg>