<svg id="Layer_1" data-name="Layer 1" xmlns="http://www.w3.org/2000/svg" viewBox="0 0 48.6 50.1"><defs><style>.cls-1{fill:#fff;}</style></defs><g id="_3e91140ac1bfb9903b91c1b0ca09020a" data-name="3e91140ac1bfb9903b91c1b0ca09020a"><path class="cls-1" d="M46.8,19.1a12.3,12.3,0,0,0,.2-1.9c-1.7-.2-3.5-.2-4.3.9s1.4,7.1,2.6,9.3a6.6,6.6,0,0,1,.6,1.2l.4.7c.8-1.7.6-3.5.4-5.3a21.1,21.1,0,0,1-.2-2.6Zm-1.4-.4a1.2,1.2,0,0,1-.8.5h-.2a1.4,1.4,0,0,1-1.1-.8c0-.3.6-.6,1.1-.6h.4c.5,0,.9.2.9.4A.9.9,0,0,1,45.4,18.7ZM39.6,5.9a21.8,21.8,0,0,1,4.1-.4A11.6,11.6,0,0,1,53.1,10c1.8,2.2-.2,12.2-5.7,20.9a.3.3,0,0,1-.1-.2h-.1c1.4-2.3,1.1-4.7.9-6.7a23.2,23.2,0,0,1-.2-2.4,14.6,14.6,0,0,1,.3-2.2,19.7,19.7,0,0,0,.2-2.6v-.4A15.7,15.7,0,0,0,45,9.9,14.6,14.6,0,0,0,39.6,5.9ZM24.3,31.2l.5.5-3.7,4.2c-1.1,1.3-1.9,1.1-2.1,1s-3.6-4-5.3-9.6a70.2,70.2,0,0,1-2.4-10.9c-.2-4.3.9-7.2,3.1-8.8,3.7-2.6,9.7-1.1,12.1-.3,0,.1,0,.1-.1.1-4,4-3.9,10.9-3.8,11.3v.7a29.6,29.6,0,0,1-.2,5.7A7.4,7.4,0,0,0,24.3,31.2Zm22.2.9c-.7.2-2.2.7-2,3.3s-.9,7.5-1.2,9.7-1.6,3.9-4.6,4.6-4.1-1-4.9-2.7-.6-6.4-.5-12.2v-.2c0-.2-.1-.3-.1-.4a2.7,2.7,0,0,0-1.5-1.9l-1-.2h-.4a9.4,9.4,0,0,1,.6-1.8v-.2a3,3,0,0,1,.4-1c.8-1.9,2-4.4.7-10.2-.4-2.1-2-3.2-4.4-3A11.4,11.4,0,0,0,24.4,17l-.4.2c.2-2.2.9-6.2,3.4-8.8A8.5,8.5,0,0,1,33.7,6,13.3,13.3,0,0,1,44,10.9a14.9,14.9,0,0,1,2.8,4.8c-2.6-.2-4.3.3-5.2,1.6-2,2.8,1,8.2,2.5,10.8a4.5,4.5,0,0,1,.5,1,9,9,0,0,0,1.6,2.5ZM31.9,34.5a1.5,1.5,0,0,1-.1.9,5.1,5.1,0,0,1-4.4,2.2,5.5,5.5,0,0,1-1.8-.2l-1-.4,1-.3c2.5-.5,2.9-.9,3.8-2l.7-.8a.7.7,0,0,1,.6-.4h.4A1.8,1.8,0,0,1,31.9,34.5Zm21.6-.8h.1a10.4,10.4,0,0,1-2,1.2,10.6,10.6,0,0,1-3.4.8,5.6,5.6,0,0,1-2.3-.3c-.1-1.7.5-1.8,1.1-2h.5Q49.3,34.6,53.5,33.7ZM29.6,29.8v-.2c.1-.4.3-.7.4-1.1s1.8-4,.7-9.3a2.3,2.3,0,0,0-1.7-1.8c-1.9-.5-4.6,1-5.1,1.5v.4a25.7,25.7,0,0,1-.2,6,5.8,5.8,0,0,0,1.6,4.9,4.8,4.8,0,0,0,3.5,1.6C29.1,31.2,29.3,30.5,29.6,29.8ZM27.8,19.1c-.1-.1-.3-.3-.2-.5s.4-.5.9-.5h.4c.7.1,1.3.4,1.2.8a1.1,1.1,0,0,1-1.2.9h-.1A1.1,1.1,0,0,1,27.8,19.1ZM56.9,32.8a2.8,2.8,0,0,0-2.8-2.1l-1.2.2-2.1.3a48.3,48.3,0,0,0,4.9-11.9c1-3.7,1.7-8.6-.3-11.1A14.8,14.8,0,0,0,43.3,2.6a20.9,20.9,0,0,0-5.9.9,20.2,20.2,0,0,0-3.6-.3h-.3a12.1,12.1,0,0,0-6,1.5,23.2,23.2,0,0,0-7.8-1.4c-3.6,0-6.4,1-8.3,3.1s-3.2,5.8-3,10.2A71,71,0,0,0,11.1,29c2.4,7.5,5,11,8.3,11a4.2,4.2,0,0,0,2.9-1.1,4.6,4.6,0,0,0,2.5,1.4,8.8,8.8,0,0,0,5.8-.2v1.8a21.5,21.5,0,0,0,.8,5.9,1,1,0,0,1,.1.3,10,10,0,0,0,1.4,2.7,5.4,5.4,0,0,0,4.2,1.9l1.8-.2c1.9-.4,4.1-1,5.6-3.3s2.2-5.1,2.3-10v-.5h.8a13.2,13.2,0,0,0,5.1-1C53.9,37.2,57.4,35.3,56.9,32.8Zm-4.7,3.4a12,12,0,0,1-4.5.9,6.4,6.4,0,0,1-2-.3c-.2,2.3-.8,6.7-1.1,8.5-.6,3.4-2.1,5-5.6,5.7l-1.6.2c-3.4,0-4.4-2.6-4.9-3.7s-.7-5.7-.6-10.1A6.4,6.4,0,0,1,27.4,39l-2.2-.3c-.2,0-2.1-.5-2.1-1.8s1.6-1.4,2.2-1.6c2.2-.4,2.3-.6,3-1.4l.5-.6h0a6.8,6.8,0,0,1-2.8-.7l-3.8,4.3a3.7,3.7,0,0,1-2.8,1.6l-.9-.2c-2.1-.7-4.2-4.2-6.1-10.4A63,63,0,0,1,9.9,16.5c-.2-4.8,1-8.2,3.7-10.1,4.8-3.3,12.5-.7,14.2-.1a10.1,10.1,0,0,1,6-1.7,13.4,13.4,0,0,1,3.5.5,19.7,19.7,0,0,1,6.2-1,13.1,13.1,0,0,1,10.7,5c1.7,2.2.6,7.5,0,9.7a43.5,43.5,0,0,1-6,13.4c.4.3,1.7.8,5.1.1,1.1-.2,1.8,0,2,.6S53.4,35.6,52.2,36.2Z" transform="translate(-8.4 -2.6)"/></g></svg>