<svg xmlns="http://www.w3.org/2000/svg" viewBox="0 0 340 259"><defs><style>.cls-1{fill:#fff;}.cls-10,.cls-2,.cls-5,.cls-6,.cls-7,.cls-9{fill:#354053;}.cls-3,.cls-8{fill:#4e75b9;}.cls-4,.cls-5,.cls-6,.cls-7,.cls-8,.cls-9{isolation:isolate;}.cls-5,.cls-6,.cls-7,.cls-8,.cls-9{font-size:24.55px;font-family:Gilroy-ExtraBold, Gilroy;font-weight:800;}.cls-6{letter-spacing:-0.02em;}.cls-7{letter-spacing:-0.01em;}.cls-9{letter-spacing:0.01em;}.cls-10{font-size:7.37px;font-family:Gilroy-Light, Gilroy;font-weight:300;}.cls-11{letter-spacing:-0.03em;}.cls-12{letter-spacing:-0.03em;}.cls-13{letter-spacing:0em;}.cls-14{letter-spacing:-0.05em;}.cls-15{letter-spacing:-0.02em;}.cls-16{letter-spacing:-0.02em;}.cls-17{letter-spacing:-0.02em;}</style></defs><g id="Layer_2" data-name="Layer 2"><rect class="cls-1" width="340" height="259"/></g><g id="Layer_1" data-name="Layer 1"><rect class="cls-2" x="146.4" y="59.02" width="55.18" height="12.86" rx="6.13" transform="translate(4.68 142.2) rotate(-45)"/><rect class="cls-2" x="136.1" y="129.52" width="55.18" height="12.86" rx="6.13" transform="translate(-48.18 155.57) rotate(-45)"/><rect class="cls-2" x="197.45" y="77.83" width="12.86" height="55.18" rx="6.13" transform="translate(-14.83 175.04) rotate(-45)"/><rect class="cls-2" x="127.41" y="68.09" width="12.86" height="55.18" rx="6.13" transform="translate(-28.45 122.66) rotate(-45)"/><rect class="cls-2" x="142.77" y="44.66" width="12.86" height="12.21" rx="5.86" transform="translate(7.8 120.37) rotate(-45)"/><rect class="cls-2" x="212.86" y="74.71" width="12.86" height="12.21" rx="5.86" transform="translate(7.08 178.73) rotate(-45)"/><rect class="cls-2" x="112.49" y="115.24" width="12.86" height="12.21" rx="5.86" transform="translate(-50.97 119.63) rotate(-45)"/><rect class="cls-2" x="182.75" y="145.37" width="12.86" height="12.21" rx="5.86" transform="translate(-51.7 178.13) rotate(-45)"/><rect class="cls-3" x="162.7" y="94.91" width="12.32" height="11.67" rx="3.04" transform="translate(-21.78 148.91) rotate(-45)"/><g class="cls-4"><text class="cls-5" transform="translate(114.82 199.58)">Spa</text><text class="cls-6" transform="translate(159.76 199.58)">c</text><text class="cls-7" transform="translate(172.43 199.58)">e</text><text class="cls-8" transform="translate(186.42 199.58)">A</text><text class="cls-9" transform="translate(203.11 199.58)">r</text><text class="cls-5" transform="translate(212.56 199.58)">t</text></g><text class="cls-10" transform="translate(122.88 215.9)">Digi<tspan class="cls-11" x="13.14" y="0">t</tspan><tspan x="15.69" y="0">ali</tspan><tspan class="cls-12" x="23.45" y="0">z</tspan><tspan class="cls-13" x="26.74" y="0">ation li</tspan><tspan class="cls-14" x="49.4" y="0">k</tspan><tspan x="52.59" y="0">e a Uni</tspan><tspan class="cls-15" x="76.19" y="0">v</tspan><tspan x="79.81" y="0">e</tspan><tspan class="cls-16" x="84.15" y="0">r</tspan><tspan class="cls-17" x="86.34" y="0">s</tspan><tspan x="89.61" y="0">e</tspan></text></g></svg>