<svg id="Layer_1" data-name="Layer 1" xmlns="http://www.w3.org/2000/svg" viewBox="0 0 149.6 55.9"><defs><style>.cls-1{fill:#fff;}</style></defs><path class="cls-1" d="M62,25.6c-.3,0-.4-.1-.3-.4l1.6-1.9a1,1,0,0,1,.8-.4h26c.3,0,.3.2.2.4l-1.2,1.9a1.2,1.2,0,0,1-.8.5Z" transform="translate(-50.7 -8.7)"/><path class="cls-1" d="M51,32.3c-.3,0-.4-.1-.3-.4L52.3,30a1,1,0,0,1,.8-.4H86.3a.4.4,0,0,1,.4.4l-.6,1.8a.7.7,0,0,1-.7.4Z" transform="translate(-50.7 -8.7)"/><path class="cls-1" d="M68.6,39c-.3,0-.4-.2-.2-.4l1-1.8a.8.8,0,0,1,.7-.5H84.7c.3,0,.4.2.4.5v1.8a.5.5,0,0,1-.5.5Z" transform="translate(-50.7 -8.7)"/><g id="CXHf1q"><path class="cls-1" d="M144.2,24.3,132,27.5c-1.1.3-1.2.4-2.2-.7a7.8,7.8,0,0,0-3.4-2.8c-4.6-2.3-9-1.6-13.2,1.1a15.4,15.4,0,0,0-7.4,13.8,11.5,11.5,0,0,0,9.8,11.5A13.6,13.6,0,0,0,128,45.6a31.6,31.6,0,0,0,2-2.7H115.9c-1.5,0-1.9-1-1.3-2.2a74.1,74.1,0,0,1,3.7-8,1.9,1.9,0,0,1,1.8-1.1h26.5c-.1,1.9-.1,3.9-.4,5.9a31.8,31.8,0,0,1-6,14.3c-5.3,6.9-12.1,11.2-20.8,12.3a25.6,25.6,0,0,1-19.6-4.8,22.5,22.5,0,0,1-9.2-16.1c-1-8,1.4-15.1,6.2-21.4A31.9,31.9,0,0,1,117.2,9.2c6.8-1.2,13.4-.4,19.3,3.6a22.4,22.4,0,0,1,8.4,10.3C145.4,23.7,145.1,24.1,144.2,24.3Z" transform="translate(-50.7 -8.7)"/><path class="cls-1" d="M168.3,64.6a28.1,28.1,0,0,1-17.8-6.4,22.5,22.5,0,0,1-7.8-14.1c-1.3-8.2.9-15.5,5.9-22S160.3,11.5,169,9.9s14.4-.5,20.7,3.8A22.6,22.6,0,0,1,200,29.9c1.2,9.8-1.6,17.8-8.4,24.7a33.2,33.2,0,0,1-17.5,9.3A57.3,57.3,0,0,1,168.3,64.6Zm17.3-29.5a9.3,9.3,0,0,0-.2-2.4,11.9,11.9,0,0,0-14.8-9.6c-6.8,1.5-11.2,5.8-12.8,12.6a12.1,12.1,0,0,0,6.7,13.8,13.8,13.8,0,0,0,11.9-.4C182.1,46.1,185.3,41.4,185.6,35.1Z" transform="translate(-50.7 -8.7)"/></g></svg>