<svg id="Layer_1" data-name="Layer 1" xmlns="http://www.w3.org/2000/svg" viewBox="0 0 149.6 55.9"><defs><style>.cls-1{fill:#00aed8;}</style></defs><path class="cls-1" d="M11.3,16.9c-.3,0-.4-.1-.3-.4l1.6-1.9a.9.9,0,0,1,.8-.4h26c.3,0,.3.2.2.4l-1.2,1.9a1.4,1.4,0,0,1-.8.5Z" transform="translate(0 0)"/><path class="cls-1" d="M.3,23.6c-.3,0-.4-.1-.3-.4l1.6-1.9a.9.9,0,0,1,.8-.4H35.6a.4.4,0,0,1,.4.4h0l-.6,1.8a.7.7,0,0,1-.7.4Z" transform="translate(0 0)"/><path class="cls-1" d="M17.9,30.3c-.3,0-.4-.2-.2-.4l1-1.8a.8.8,0,0,1,.7-.5H34c.3,0,.4.2.4.5v1.8a.5.5,0,0,1-.5.5Z" transform="translate(0 0)"/><g id="CXHf1q"><path class="cls-1" d="M93.5,15.6,81.3,18.8c-1.1.3-1.2.4-2.2-.7a7.8,7.8,0,0,0-3.4-2.8c-4.6-2.3-9-1.6-13.2,1.1a15.4,15.4,0,0,0-7.4,13.8,11.4,11.4,0,0,0,9.8,11.5,13.6,13.6,0,0,0,12.4-4.8l2-2.7H65.2c-1.5,0-1.9-1-1.3-2.2a82.5,82.5,0,0,1,3.7-8,1.9,1.9,0,0,1,1.8-1.1H95.9c-.1,1.9-.1,3.9-.4,5.9a32.4,32.4,0,0,1-6,14.3C84.2,50,77.4,54.3,68.7,55.4a25.5,25.5,0,0,1-19.6-4.8,22.7,22.7,0,0,1-9.2-16.1c-1-8,1.4-15.1,6.2-21.4A31.9,31.9,0,0,1,66.5.5C73.3-.7,79.9.1,85.8,4.1a22.3,22.3,0,0,1,8.4,10.3C94.7,15,94.4,15.4,93.5,15.6Z" transform="translate(0 0)"/><path class="cls-1" d="M117.6,55.9a28.1,28.1,0,0,1-17.8-6.4A22.5,22.5,0,0,1,92,35.4c-1.3-8.2.9-15.5,5.9-22A32,32,0,0,1,118.3,1.2C127-.4,132.7.7,139,5a22.6,22.6,0,0,1,10.3,16.2c1.2,9.8-1.6,17.8-8.4,24.7a33.3,33.3,0,0,1-17.5,9.3A57.3,57.3,0,0,1,117.6,55.9Zm17.3-29.5a9.7,9.7,0,0,0-.2-2.4,11.8,11.8,0,0,0-13.6-9.8l-1.2.2c-6.8,1.5-11.2,5.8-12.8,12.6a12.2,12.2,0,0,0,6.7,13.8,13.8,13.8,0,0,0,11.9-.4C131.4,37.4,134.6,32.7,134.9,26.4Z" transform="translate(0 0)"/></g></svg>