<svg id="Layer_1" data-name="Layer 1" xmlns="http://www.w3.org/2000/svg" viewBox="0 0 35.2 47.7"><defs><style>.cls-1{fill:#ec2025;}.cls-2{fill:#0d8ac7;}</style></defs><path class="cls-1" d="M-29.9,6.3s-2.6-5.1-2.5-8.8,6.1-5.4,8.5-9.2-.3-7.6-.3-7.6a8.4,8.4,0,0,1-1,5.6c-1.6,2.9-7.4,4.6-9.7,9.5S-29.9,6.3-29.9,6.3Z" transform="translate(46.4 19.3)"/><path class="cls-1" d="M-19.9-9.2S-29-5.8-29-1.8s2.5,5.2,2.9,6.5-.7,3.4-.7,3.4,3.6-2.5,3-5.3S-27.2-1-25.6-3.8-19.9-9.2-19.9-9.2Z" transform="translate(46.4 19.3)"/><path class="cls-2" d="M-30.8,11.5c8.3-.3,11.4-2.9,11.4-2.9-5.4,1.5-19.8,1.4-19.9.3s4.4-2,4.4-2-7.1,0-7.7,1.8S-39.2,11.8-30.8,11.5Z" transform="translate(46.4 19.3)"/><path class="cls-2" d="M-18.7,15.7s8.2-1.7,7.4-6.2S-18,7.1-18,7.1s4,0,4.4,2.5S-18.7,15.7-18.7,15.7Z" transform="translate(46.4 19.3)"/><path class="cls-2" d="M-22.8,13.3a20.9,20.9,0,0,1-5.1.9c-4.1.5-9.1.1-9.4-.6s.6-1.1.6-1.1c-4.9,1.2-2.2,3.3,3.6,3.7a41.3,41.3,0,0,0,12.3-1.5Z" transform="translate(46.4 19.3)"/><path class="cls-2" d="M-35.5,17.6s-2.2.1-2.3,1.3,1.3,2.2,6.9,2.5a18.9,18.9,0,0,0,9.4-1.5L-24,18.4a25.7,25.7,0,0,1-4,.7c-2.5.3-7.5-.3-7.7-.7A.8.8,0,0,1-35.5,17.6Z" transform="translate(46.4 19.3)"/><path class="cls-2" d="M-31.9,26.1C-20,26-14.8,23.9-14,23a1,1,0,0,0-.1-1.5c0-.1-.1-.1-.2-.2a.7.7,0,0,1-.1,1h0c-.5.5-5.3,1.8-13,2.2s-16-.7-16.3-1.7,4.3-1.7,4.3-1.7-6.8.2-7,1.9S-43.7,26.1-31.9,26.1Z" transform="translate(46.4 19.3)"/><path class="cls-2" d="M-18.6,26.8c-5.2,1.1-20.9.4-20.9.4a57.6,57.6,0,0,0,21.9.4c5.6-1,5.9-3.7,5.9-3.7S-13.4,25.8-18.6,26.8Z" transform="translate(46.4 19.3)"/></svg>