<svg id="Layer_1" data-name="Layer 1" xmlns="http://www.w3.org/2000/svg" viewBox="0 0 35.2 47.7"><defs><style>.cls-1{fill:#fff;}</style></defs><path class="cls-1" d="M31.3,28.5s-2.6-5.1-2.5-8.8,6.1-5.4,8.5-9.2S37,2.9,37,2.9a8.6,8.6,0,0,1-1,5.6c-1.6,2.9-7.4,4.6-9.7,9.5S31.3,28.5,31.3,28.5Z" transform="translate(-14.7 -2.9)"/><path class="cls-1" d="M41.3,13s-9.1,3.4-9.1,7.4,2.5,5.2,2.9,6.5-.7,3.4-.7,3.4,3.6-2.5,3-5.3-3.4-3.8-1.8-6.6S41.3,13,41.3,13Z" transform="translate(-14.7 -2.9)"/><path class="cls-1" d="M30.4,33.7c8.3-.3,11.4-2.9,11.4-2.9-5.4,1.5-19.8,1.4-19.9.3s4.4-2,4.4-2-7.1,0-7.7,1.8S22,34,30.4,33.7Z" transform="translate(-14.7 -2.9)"/><path class="cls-1" d="M42.5,37.9s8.2-1.7,7.4-6.2-6.7-2.4-6.7-2.4,4,0,4.4,2.5S42.5,37.9,42.5,37.9Z" transform="translate(-14.7 -2.9)"/><path class="cls-1" d="M38.4,35.5a29.4,29.4,0,0,1-5.1.9c-4.1.5-9.1.1-9.4-.6s.6-1.1.6-1.1c-4.9,1.2-2.2,3.3,3.6,3.7s12.3-1.5,12.3-1.5Z" transform="translate(-14.7 -2.9)"/><path class="cls-1" d="M25.7,39.8s-2.2.1-2.3,1.3,1.3,2.2,6.9,2.5a20,20,0,0,0,9.4-1.5l-2.5-1.5a37.3,37.3,0,0,1-4,.7c-2.5.3-7.5-.3-7.7-.7A.7.7,0,0,1,25.7,39.8Z" transform="translate(-14.7 -2.9)"/><path class="cls-1" d="M29.3,48.3c11.9-.1,17.1-2.2,17.9-3.1a1.1,1.1,0,0,0-.3-1.7.7.7,0,0,1-.1,1c-.5.5-5.3,1.8-13,2.2S17.8,46,17.5,45s4.3-1.7,4.3-1.7-6.8.2-7,1.9S17.5,48.3,29.3,48.3Z" transform="translate(-14.7 -2.9)"/><path class="cls-1" d="M42.6,49c-5.2,1.1-20.9.4-20.9.4a58.7,58.7,0,0,0,21.9.4c5.6-1,5.9-3.7,5.9-3.7S47.8,48,42.6,49Z" transform="translate(-14.7 -2.9)"/></svg>