<svg id="Layer_1" data-name="Layer 1" xmlns="http://www.w3.org/2000/svg" viewBox="0 0 94.1 90.7"><defs><style>.cls-1{fill:#fff;}</style></defs><path class="cls-1" d="M-295.3-119.6c-8.3,12-7.3,27.5-.9,40.3l.4.9.3.6.2.3a2.1,2.1,0,0,0,.4.6l.6,1,.3.6.7,1.1.3.5,1,1.4h.1c0,.1.1.1.1.2l1,1.2.3.5.9,1,.3.4,1.2,1.4h.1l1.2,1.3.4.4,1,.9.4.4,1.3,1.2h0l.2.2,1.3,1a1,1,0,0,0,.5.4,3.9,3.9,0,0,0,1,.8,1,1,0,0,0,.5.4l1.1.9.4.3h.2l1.1.8.4.3,1.8,1,.4.3,1.3.7.7.4,1,.5h.2l.4.2,1.4.6.3.2,1.7.7.5.2,1.6.6h.2l1.8.6h.4l1.9.6c40.3,7.3,52-24.3,52-24.3-9.8,12.9-27.3,16.2-43.8,12.5l-1.9-.5-.4-.2-1.8-.6h-.3l-1.5-.5-.5-.2-1.7-.7-.3-.2-1.4-.6-.4-.2-1.1-.6-.8-.4-1.3-.7-.5-.3-1.7-1-.4-.3-1.3-.8-.4-.3-1.1-.9-.5-.3-1.1-.9-.4-.3-1.3-1.1-.2-.2-1.4-1.2-.3-.4-1-.9-.4-.4-1.2-1.3h-.1l-1.2-1.4-.3-.3-.9-1.1-.3-.4-1.1-1.4c-9.1-12.5-12.4-29.8-5.1-44" transform="translate(301.3 140.9)"/><path class="cls-1" d="M-269.4-129.7c-6.1,8.7-5.7,20.3-1,29.4a48.3,48.3,0,0,0,2.6,4.5,23.1,23.1,0,0,0,3.1,3.9l1.4,1.4.4.3a15.9,15.9,0,0,0,1.3,1.3c.1,0,.1,0,.1.1h0l1.6,1.3.4.3,1.7,1.2h0l.8.5.4.2,1.2.8h.2l1.1.6.4.2.8.4h.1l1.6.7.3.2,1.4.5.5.2,1.3.4.5.2,1.8.5c31.1,5.2,38.3-18.8,38.3-18.8-6.5,9.3-19.1,13.8-32.4,10.3l-1.8-.5-.5-.2-1.3-.4-.5-.2-1.3-.5-.4-.2-1.6-.7-.8-.5-.5-.2-1-.6h-.3l-1.2-.8-.4-.2-.8-.6-1.7-1.2-.4-.3a37.5,37.5,0,0,1-12.7-18.1,28.3,28.3,0,0,1,2.2-22.6" transform="translate(301.3 140.9)"/><path class="cls-1" d="M-247.7-137.3a18.2,18.2,0,0,0-1.4,17.5A24.6,24.6,0,0,0-235-106.5l.8.2h.4l1.1.4c17.2,3.3,21.8-8.9,23.1-10.6-4.1,5.8-11,7.2-19.4,5.2l-2-.6-2.5-1a22.6,22.6,0,0,1-4.2-2.6c-7.5-5.7-12.2-16.6-7.3-25.5" transform="translate(301.3 140.9)"/></svg>