<svg id="Layer_1" data-name="Layer 1" xmlns="http://www.w3.org/2000/svg" viewBox="0 0 94.2 90.4"><defs><style>.cls-1{fill:#1161a0;}</style></defs><path class="cls-1" d="M6,21.3c-8.3,12-7.3,27.5-.9,40.3l.4.9.3.6.2.3.4.6L7,65l.3.6L8,66.7l.3.5,1,1.4h.1c0,.1.1.1.1.2l1,1.2.3.5.9,1,.3.4,1.2,1.4h.1l1.2,1.3.4.4,1,.9.4.4,1.3,1.2h0l.2.2,1.3,1a1,1,0,0,0,.5.4,3.9,3.9,0,0,0,1,.8,1,1,0,0,0,.5.4l1.1.9.4.3h.2l1.1.8.4.3,1.8,1,.4.3,1.3.7.7.4,1,.5h.2l.4.2,1.4.6.3.2,1.7.7.5.2,1.6.6h.2l1.8.6H38l1.9.6c40.3,7.3,52-24.3,52-24.3C82.1,77.8,64.6,81.1,48.1,77.4l-1.9-.5-.4-.2L44,76.1h-.3l-1.5-.5-.5-.2L40,74.7l-.3-.2-1.4-.6-.4-.2-1.1-.6-.8-.4L34.7,72l-.5-.3-1.7-1-.4-.3-1.3-.8-.4-.3-1.1-.9-.5-.3-1.1-.9-.4-.3L26,65.8l-.2-.2-1.4-1.2-.3-.4-1-.9-.4-.4-1.2-1.3h-.1L20.2,60l-.3-.3L19,58.6l-.3-.4-1.1-1.4C8.5,44.3,5.2,27,12.5,12.8" transform="translate(0 0.1)"/><path class="cls-1" d="M31.9,11.2c-6.1,8.7-5.7,20.3-1,29.4.8,1.5,1.7,3,2.6,4.5A23.1,23.1,0,0,0,36.6,49L38,50.4l.4.3A8,8,0,0,0,39.7,52c.1,0,.1,0,.1.1h0l1.6,1.3.4.3,1.7,1.2h0l.8.5.4.2,1.2.8h.2l1.1.6.4.2.8.4h.1l1.6.7.3.2,1.4.5.5.2,1.3.4.5.2,1.8.5C87,65.5,94.2,41.5,94.2,41.5c-6.5,9.3-19.1,13.8-32.4,10.3L60,51.3l-.5-.2-1.3-.4-.5-.2L56.4,50l-.4-.2-1.6-.7-.8-.5-.5-.2-1-.6h-.3L50.6,47l-.4-.2-.8-.6L47.7,45l-.4-.3A36.9,36.9,0,0,1,34.6,26.6,27.9,27.9,0,0,1,36.8,4" transform="translate(0 0.1)"/><path class="cls-1" d="M53.6,3.6a18.2,18.2,0,0,0-1.4,17.5A24.6,24.6,0,0,0,66.3,34.4l.8.2h.4l1.1.4c17.2,3.3,21.8-8.9,23.1-10.6-4.1,5.8-11,7.2-19.4,5.2l-2-.6-2.5-1a22.6,22.6,0,0,1-4.2-2.6C56.1,19.7,51.4,8.8,56.3-.1" transform="translate(0 0.1)"/></svg>