<svg id="Layer_1" data-name="Layer 1" xmlns="http://www.w3.org/2000/svg" viewBox="0 0 49.7 51.1"><defs><style>.cls-1{fill:#fff;fill-rule:evenodd;}</style></defs><path class="cls-1" d="M49.8,12V23.2a.8.8,0,0,1-.4.7l-9.2,5.3V39.7a.8.8,0,0,1-.4.7L20.6,51.5h-.2a.3.3,0,0,1-.4,0h-.2L.6,40.4a.8.8,0,0,1-.4-.7V6.6H.5c0-.1,0-.1.1-.1h0L10.2.5H11l9.6,5.6h.1c0,.1,0,.1.1.1h0c.1,0,.1,0,.1.1H21V27.3l8-4.6V12h.4L39,6a.6.6,0,0,1,.8,0l9.6,5.5h.4ZM48.2,22.7V13.6l-3.3,1.9-4.7,2.7v9.1l8-4.6ZM38.6,39.2V30.1L34,32.7,21,40.2v9.2ZM1.8,8.2v31L19.4,49.4V40.2l-9.2-5.3H9.9c0-.1,0-.1-.1-.1h0v-.2h0V12.8L5.1,10.1,1.8,8.2Zm8.8-6-8,4.6,8,4.6,8-4.6-8-4.6Zm4.1,28.7,4.7-2.6V8.2L16,10.1l-4.6,2.7V32.9ZM39.4,7.6l-8,4.6,8,4.6,8-4.6Zm-.8,10.6L34,15.5l-3.4-1.9v9.1l4.7,2.7,3.3,1.9ZM20.2,38.8l11.7-6.7,5.9-3.4-8-4.6-9.2,5.3-8.4,4.8Z" transform="translate(-0.2 -0.4)"/></svg>