<svg id="Layer_1" data-name="Layer 1" xmlns="http://www.w3.org/2000/svg" viewBox="0 0 60.9 54.2"><defs><style>.cls-1{fill:#00d8ff;}</style></defs><path class="cls-1" d="M60.9,27.1c0-4-5.1-7.9-12.8-10.2C49.8,9,49.1,2.7,45.6.7A5.5,5.5,0,0,0,42.8,0V2.8a3.2,3.2,0,0,1,1.4.3c1.7,1,2.4,4.6,1.8,9.4a22.5,22.5,0,0,1-.6,3.6,68.5,68.5,0,0,0-7.9-1.3,43.1,43.1,0,0,0-5.1-6.2c4-3.8,7.8-5.8,10.4-5.8V0c-3.4,0-7.9,2.4-12.4,6.6C25.9,2.5,21.4,0,18,0V2.8c2.6,0,6.4,2.1,10.4,5.8a76.4,76.4,0,0,0-5.1,6.2,68.5,68.5,0,0,0-7.9,1.3,22.5,22.5,0,0,1-.6-3.6c-.6-4.7.1-8.4,1.8-9.4A3.2,3.2,0,0,1,18,2.8V.1a5.5,5.5,0,0,0-2.8.7c-3.5,2-4.3,8.2-2.5,16.1C5,19.3,0,23.1,0,27.1S5,35,12.8,37.3c-1.8,7.9-1,14.2,2.5,16.2a5.3,5.3,0,0,0,2.8.7c3.4,0,7.9-2.4,12.4-6.7,4.5,4.2,9,6.6,12.4,6.6a5.5,5.5,0,0,0,2.8-.7c3.5-2,4.2-8.2,2.4-16.1,7.7-2.4,12.8-6.2,12.8-10.2ZM44.7,18.8A40.5,40.5,0,0,1,43,23.7c-.5-1-1-2-1.6-3l-1.8-2.9ZM39,32a38.8,38.8,0,0,1-3,4.8l-5.6.2-5.6-.2-3-4.7c-.9-1.7-1.8-3.3-2.5-5s1.6-3.3,2.5-4.9,2-3.3,3-4.8l5.6-.2,5.6.2q1.5,2.3,3,4.8c.9,1.6,1.8,3.2,2.6,4.9Zm4-1.6a29.5,29.5,0,0,1,1.7,5l-5.1,1,1.8-3C42,32.4,42.5,31.4,43,30.4ZM30.4,43.7c-1.1-1.2-2.3-2.6-3.4-4h6.9C32.7,41.1,31.6,42.5,30.4,43.7Zm-9.2-7.3-5.1-1c.5-1.6,1.1-3.3,1.7-4.9l1.6,3Zm9.2-25.9c1.1,1.2,2.3,2.6,3.4,4H27C28.1,13.1,29.2,11.8,30.4,10.5Zm-9.2,7.3-1.8,3-1.6,3c-.7-1.7-1.2-3.4-1.7-5ZM10,33.4C5.6,31.5,2.8,29,2.8,27.1s2.8-4.4,7.2-6.3l3.4-1.2a60.9,60.9,0,0,0,2.8,7.5,47.8,47.8,0,0,0-2.7,7.5A20.6,20.6,0,0,1,10,33.4Zm6.7,17.7c-1.7-1-2.5-4.7-1.9-9.4.1-1.2.4-2.4.6-3.6a68.5,68.5,0,0,0,7.9,1.3,51.7,51.7,0,0,0,5.2,6.2c-4.1,3.8-7.9,5.8-10.4,5.8A3.2,3.2,0,0,1,16.7,51.1Zm29.4-9.5c.6,4.8-.2,8.5-1.8,9.5a4,4,0,0,1-1.5.3c-2.5,0-6.3-2.1-10.4-5.8a43.1,43.1,0,0,0,5.1-6.2A68.6,68.6,0,0,0,45.4,38C45.7,39.3,45.9,40.5,46.1,41.6Zm4.8-8.2-3.5,1.2a48.1,48.1,0,0,0-2.8-7.5,48.1,48.1,0,0,0,2.8-7.5,20.6,20.6,0,0,1,3.5,1.2c4.4,1.9,7.2,4.4,7.2,6.3S55.2,31.5,50.9,33.4Z" transform="translate(0 0)"/><circle class="cls-1" cx="30.4" cy="27.1" r="5.7"/></svg>