<svg id="Layer_1" data-name="Layer 1" xmlns="http://www.w3.org/2000/svg" viewBox="0 0 60.9 54.2"><defs><style>.cls-1{fill:#fff;}</style></defs><path class="cls-1" d="M130.7,26.9c0-4-5.1-7.9-12.8-10.2,1.7-7.9,1-14.2-2.5-16.2a5.3,5.3,0,0,0-2.8-.7V2.6a3.2,3.2,0,0,1,1.4.3c1.7,1,2.4,4.6,1.8,9.4a22.5,22.5,0,0,1-.6,3.6,59.2,59.2,0,0,0-7.9-1.3,54.4,54.4,0,0,0-5.1-6.2c4-3.8,7.8-5.8,10.4-5.8V-.2c-3.4,0-7.9,2.4-12.4,6.6-4.5-4.1-9-6.6-12.4-6.6V2.6c2.6,0,6.4,2.1,10.4,5.8a67.6,67.6,0,0,0-5.1,6.2,59.2,59.2,0,0,0-7.9,1.3,22.5,22.5,0,0,1-.6-3.6c-.6-4.7.1-8.4,1.8-9.4a2.9,2.9,0,0,1,1.4-.3V-.1A5.3,5.3,0,0,0,85,.6c-3.5,2-4.3,8.2-2.5,16.1-7.7,2.4-12.7,6.2-12.7,10.2s5,7.9,12.8,10.2c-1.8,7.9-1,14.2,2.5,16.2a5.1,5.1,0,0,0,2.8.7c3.4,0,7.9-2.4,12.4-6.7,4.5,4.2,9,6.6,12.4,6.6a5.5,5.5,0,0,0,2.8-.7c3.5-2,4.2-8.2,2.4-16.1,7.7-2.4,12.8-6.2,12.8-10.2Zm-16.2-8.3a47.5,47.5,0,0,1-1.7,4.9c-.5-1-1-2-1.6-3l-1.8-2.9,5.1,1Zm-5.7,13.2a38.8,38.8,0,0,1-3,4.8l-5.6.2-5.6-.2-3-4.7c-.9-1.7-1.8-3.3-2.5-5s1.6-3.3,2.5-4.9,2-3.3,3-4.8l5.6-.2,5.6.2q1.5,2.3,3,4.8c.9,1.6,1.8,3.2,2.6,4.9l-2.6,4.9Zm4-1.6a32.8,32.8,0,0,1,1.7,5l-5.1,1,1.8-3c.6-1,1.1-2,1.6-3ZM100.2,43.5c-1.1-1.2-2.3-2.6-3.4-4h6.9C102.5,40.9,101.4,42.3,100.2,43.5ZM91,36.2l-5.1-1c.5-1.6,1.1-3.3,1.7-4.9l1.6,3Zm9.2-25.9c1.1,1.2,2.3,2.6,3.4,4H96.8A44.7,44.7,0,0,1,100.2,10.3ZM91,17.6l-1.8,3-1.6,3c-.7-1.7-1.2-3.4-1.7-5l5.1-1ZM79.8,33.2c-4.4-1.9-7.2-4.4-7.2-6.3s2.8-4.4,7.2-6.3l3.4-1.2A70.1,70.1,0,0,0,86,26.9a52.6,52.6,0,0,0-2.7,7.5,28.6,28.6,0,0,1-3.5-1.2Zm6.7,17.7c-1.7-1-2.5-4.7-1.9-9.4.1-1.2.4-2.4.6-3.6a62,62,0,0,0,7.9,1.3,54.9,54.9,0,0,0,5.2,6.2c-4.1,3.8-7.9,5.8-10.4,5.8a2.6,2.6,0,0,1-1.4-.3Zm29.4-9.5c.6,4.8-.2,8.5-1.8,9.5a3.3,3.3,0,0,1-1.5.3c-2.5,0-6.3-2.1-10.4-5.8a45.6,45.6,0,0,0,5.1-6.2,58.8,58.8,0,0,0,7.9-1.4C115.5,39.1,115.7,40.3,115.9,41.4Zm4.8-8.2-3.5,1.2a53.6,53.6,0,0,0-2.8-7.5,53.6,53.6,0,0,0,2.8-7.5,35.9,35.9,0,0,1,3.5,1.2c4.4,1.9,7.2,4.4,7.2,6.3s-2.9,4.4-7.2,6.3Z" transform="translate(-69.8 0.2)"/><circle class="cls-1" cx="30.4" cy="27.1" r="5.7"/></svg>